<svg width="20" height="20" viewBox="0 0 20 20" fill="none" xmlns="http://www.w3.org/2000/svg">
<path d="M10 2.14844C8.94943 2.14844 7.90914 2.35536 6.93853 2.7574C5.96793 3.15944 5.08601 3.74871 4.34315 4.49158C2.84285 5.99187 2 8.02671 2 10.1484C2 13.6844 4.296 16.6844 7.472 17.7484C7.872 17.8124 8 17.5644 8 17.3484V15.9964C5.784 16.4764 5.312 14.9244 5.312 14.9244C4.944 13.9964 4.424 13.7484 4.424 13.7484C3.696 13.2524 4.48 13.2684 4.48 13.2684C5.28 13.3244 5.704 14.0924 5.704 14.0924C6.4 15.3084 7.576 14.9484 8.032 14.7564C8.104 14.2364 8.312 13.8844 8.536 13.6844C6.76 13.4844 4.896 12.7964 4.896 9.74844C4.896 8.86044 5.2 8.14844 5.72 7.58044C5.64 7.38044 5.36 6.54844 5.8 5.46844C5.8 5.46844 6.472 5.25244 8 6.28444C8.632 6.10844 9.32 6.02044 10 6.02044C10.68 6.02044 11.368 6.10844 12 6.28444C13.528 5.25244 14.2 5.46844 14.2 5.46844C14.64 6.54844 14.36 7.38044 14.28 7.58044C14.8 8.14844 15.104 8.86044 15.104 9.74844C15.104 12.8044 13.232 13.4764 11.448 13.6764C11.736 13.9244 12 14.4124 12 15.1564V17.3484C12 17.5644 12.128 17.8204 12.536 17.7484C15.712 16.6764 18 13.6844 18 10.1484C18 9.09786 17.7931 8.05757 17.391 7.08697C16.989 6.11637 16.3997 5.23445 15.6569 4.49158C14.914 3.74871 14.0321 3.15944 13.0615 2.7574C12.0909 2.35536 11.0506 2.14844 10 2.14844Z" fill="#23252A"/>
</svg>
