<svg width="16" height="17" viewBox="0 0 16 17" fill="none" xmlns="http://www.w3.org/2000/svg">
<path d="M8.8224 0.149178C9.40619 0.146937 9.98998 0.152805 10.5736 0.166778L10.7288 0.172378C10.908 0.178778 11.0848 0.186778 11.2984 0.196378C12.1496 0.236378 12.7304 0.370778 13.24 0.568378C13.768 0.771578 14.2128 1.04678 14.6576 1.49158C15.0643 1.89126 15.3791 2.37474 15.58 2.90838C15.7776 3.41798 15.912 3.99958 15.952 4.85078C15.9616 5.06358 15.9696 5.24118 15.976 5.42038L15.9808 5.57558C15.995 6.15893 16.0012 6.74245 15.9992 7.32598L16 7.92278V8.97078C16.002 9.55457 15.9958 10.1384 15.9816 10.722L15.9768 10.8772C15.9704 11.0564 15.9624 11.2332 15.9528 11.4468C15.9128 12.298 15.7768 12.8788 15.58 13.3884C15.3797 13.9226 15.0649 14.4065 14.6576 14.806C14.2576 15.2126 13.7738 15.5274 13.24 15.7284C12.7304 15.926 12.1496 16.0604 11.2984 16.1004C11.0848 16.11 10.908 16.118 10.7288 16.1244L10.5736 16.1292C9.98998 16.1434 9.40619 16.1495 8.8224 16.1476L8.2256 16.1484H7.1784C6.59461 16.1504 6.01082 16.1442 5.4272 16.13L5.272 16.1252C5.08209 16.1183 4.89222 16.1103 4.7024 16.1012C3.8512 16.0612 3.2704 15.9252 2.76 15.7284C2.22615 15.5279 1.74259 15.213 1.3432 14.806C0.936036 14.4062 0.620979 13.9224 0.42 13.3884C0.2224 12.8788 0.088 12.298 0.048 11.4468C0.0390903 11.257 0.0310902 11.0671 0.024 10.8772L0.0200001 10.722C0.00525097 10.1384 -0.00141642 9.55458 2.22644e-08 8.97078V7.32598C-0.00223275 6.74246 0.00363454 6.15894 0.0176001 5.57558L0.0232001 5.42038C0.0296001 5.24118 0.0376 5.06358 0.0472 4.85078C0.0872 3.99878 0.2216 3.41878 0.4192 2.90838C0.620298 2.37447 0.935971 1.89113 1.344 1.49238C1.74312 1.08498 2.22637 0.769636 2.76 0.568378C3.2704 0.370778 3.8504 0.236378 4.7024 0.196378L5.272 0.172378L5.4272 0.168378C6.01055 0.153636 6.59407 0.146969 7.1776 0.148378L8.8224 0.149178ZM8 4.14918C7.47001 4.14168 6.94381 4.2396 6.45198 4.43723C5.96016 4.63487 5.51252 4.92828 5.13508 5.30042C4.75764 5.67256 4.45792 6.11601 4.25335 6.60499C4.04878 7.09397 3.94343 7.61873 3.94343 8.14878C3.94343 8.67883 4.04878 9.20359 4.25335 9.69257C4.45792 10.1815 4.75764 10.625 5.13508 10.9971C5.51252 11.3693 5.96016 11.6627 6.45198 11.8603C6.94381 12.058 7.47001 12.1559 8 12.1484C9.06087 12.1484 10.0783 11.727 10.8284 10.9768C11.5786 10.2267 12 9.20924 12 8.14838C12 7.08751 11.5786 6.0701 10.8284 5.31995C10.0783 4.56981 9.06087 4.14918 8 4.14918ZM8 5.74918C8.31881 5.7433 8.63559 5.80102 8.93184 5.91894C9.22809 6.03687 9.49787 6.21265 9.72542 6.43601C9.95298 6.65938 10.1337 6.92584 10.2572 7.21985C10.3806 7.51386 10.4442 7.82951 10.4442 8.14837C10.4443 8.46723 10.3808 8.7829 10.2575 9.07695C10.1341 9.371 9.95347 9.63753 9.726 9.86097C9.49852 10.0844 9.22879 10.2603 8.93258 10.3783C8.63637 10.4963 8.31961 10.5541 8.0008 10.5484C7.36428 10.5484 6.75383 10.2955 6.30374 9.84544C5.85366 9.39535 5.6008 8.7849 5.6008 8.14838C5.6008 7.51186 5.85366 6.90141 6.30374 6.45132C6.75383 6.00123 7.36428 5.74838 8.0008 5.74838L8 5.74918ZM12.2 2.94918C11.9419 2.95951 11.6978 3.0693 11.5189 3.25555C11.3399 3.44181 11.24 3.69009 11.24 3.94838C11.24 4.20667 11.3399 4.45494 11.5189 4.6412C11.6978 4.82746 11.9419 4.93725 12.2 4.94758C12.4652 4.94758 12.7196 4.84222 12.9071 4.65468C13.0946 4.46715 13.2 4.21279 13.2 3.94758C13.2 3.68236 13.0946 3.42801 12.9071 3.24047C12.7196 3.05293 12.4652 2.94758 12.2 2.94758V2.94918Z" fill="#23252A"/>
</svg>
