<svg width="16" height="16" viewBox="0 0 16 16" fill="none" xmlns="http://www.w3.org/2000/svg">
<path d="M3.952 2.54831C3.95179 2.97266 3.78301 3.37954 3.48281 3.67945C3.1826 3.97935 2.77555 4.14772 2.3512 4.14751C1.92685 4.1473 1.51997 3.97852 1.22006 3.67832C0.920155 3.37811 0.751788 2.97106 0.752 2.54671C0.752212 2.12236 0.920987 1.71548 1.22119 1.41557C1.5214 1.11567 1.92845 0.947298 2.3528 0.94751C2.77715 0.947722 3.18403 1.1165 3.48394 1.4167C3.78384 1.71691 3.95221 2.12396 3.952 2.54831ZM4 5.33231H0.8V15.3483H4V5.33231ZM9.056 5.33231H5.872V15.3483H9.024V10.0923C9.024 7.16431 12.84 6.89231 12.84 10.0923V15.3483H16V9.00431C16 4.06831 10.352 4.25231 9.024 6.67631L9.056 5.33231Z" fill="#23252A"/>
</svg>
