<svg width="230" height="87" viewBox="0 0 230 87" fill="none" xmlns="http://www.w3.org/2000/svg">
<path d="M47.5473 82.5109L47.4302 82.997L47.5473 82.5109ZM127.139 44.681L126.66 44.5385L126.66 44.5385L127.139 44.681ZM102.969 13.0254L103.09 13.5107L102.969 13.0254ZM80.6608 53.6313L81.147 53.5147L81.147 53.5146L80.6608 53.6313ZM150.856 78.6091L151.072 79.06L150.856 78.6091ZM229.02 4.56425C229.211 4.3649 229.204 4.04839 229.005 3.85731L225.756 0.743428C225.557 0.552345 225.241 0.559048 225.049 0.758402C224.858 0.957756 224.865 1.27427 225.064 1.46535L227.952 4.23324L225.184 7.12093C224.993 7.32029 225 7.6368 225.199 7.82788C225.399 8.01897 225.715 8.01226 225.906 7.81291L229.02 4.56425ZM0.718 73.5291C0.93826 73.6956 1.25183 73.6521 1.41838 73.4318C1.58494 73.2116 1.5414 72.898 1.32114 72.7315L0.718 73.5291ZM47.4302 82.997C84.9184 92.0222 119.273 72.8934 127.618 44.8235L126.66 44.5385C118.496 71.9984 84.7437 90.9516 47.6643 82.0248L47.4302 82.997ZM127.618 44.8235C129.427 38.7398 128.506 29.409 124.535 22.2348C122.545 18.6377 119.771 15.5522 116.154 13.6968C112.53 11.8373 108.1 11.235 102.849 12.5402L103.09 13.5107C108.13 12.258 112.309 12.8478 115.698 14.5866C119.095 16.3296 121.74 19.2488 123.661 22.7191C127.513 29.6797 128.385 38.7345 126.66 44.5385L127.618 44.8235ZM102.849 12.5402C84.0321 17.217 76.2826 37.523 80.1746 53.7479L81.147 53.5146C77.3438 37.6596 84.9563 18.0177 103.09 13.5107L102.849 12.5402ZM80.1746 53.7479C84.2789 70.8594 94.7615 80.6918 107.875 84.4746C120.959 88.2487 136.604 85.9876 151.072 79.06L150.64 78.1581C136.329 85.0104 120.94 87.2026 108.153 83.5138C95.3954 79.8339 85.1701 70.2874 81.147 53.5147L80.1746 53.7479ZM151.072 79.06C159.15 75.1923 165.512 68.614 171.141 60.9624C176.762 53.3201 181.698 44.5397 186.868 36.2773C197.247 19.689 208.599 5.14331 228.67 4.71816L228.648 3.71838C207.997 4.15583 196.39 19.1721 186.02 35.7469C180.815 44.0659 175.928 52.7674 170.335 60.3698C164.749 67.9629 158.505 74.3924 150.64 78.1581L151.072 79.06ZM1.32114 72.7315C1.36787 72.7668 1.4817 72.8692 1.50304 73.0533C1.5268 73.2583 1.41921 73.3979 1.35563 73.4565C1.2969 73.5105 1.24326 73.5305 1.23469 73.5337C1.21999 73.5392 1.21696 73.5386 1.2328 73.5356C1.30699 73.5213 1.51311 73.5034 1.95575 73.5232C2.82576 73.5622 4.48591 73.7399 7.55174 74.2586C13.6778 75.2951 25.3571 77.6829 47.4302 82.997L47.6643 82.0248C25.5848 76.7092 13.879 74.3149 7.71856 73.2726C4.64119 72.7519 2.93284 72.566 2.00051 72.5242C1.54198 72.5037 1.23847 72.5161 1.0435 72.5537C0.992039 72.5636 0.936749 72.5773 0.882456 72.5978C0.834301 72.6159 0.753724 72.6513 0.678382 72.7207C0.59819 72.7945 0.484289 72.9493 0.50969 73.1684C0.532671 73.3667 0.656091 73.4823 0.718 73.5291L1.32114 72.7315Z" fill="#4269F6"/>
</svg>
